<svg data-logo="logo" xmlns="http://www.w3.org/2000/svg" viewBox="0 0 217.86000061035156 41">
        <g style="opacity: 1;" id="logogram" transform="translate(0, 0.5)
    rotate(0 31.5 20)"><path d="M63 29.3506L38.117 5.08907C37.4008 4.39081 36.4402 4 35.44 4C31.9983 4 30.2991 8.18294 32.7659 10.583L59.4712 36.5666C60.7577 37.8183 59.8715 40 58.0765 40H9.65685C8.59599 40 7.57857 39.5786 6.82843 38.8284L1.17157 33.1716C0.421426 32.4214 0 31.404 0 30.3431V10.6484L24.883 34.9109C25.5992 35.6092 26.5598 36 27.5601 36C31.0017 36 32.7009 31.8171 30.2342 29.417L3.52882 3.43345C2.24227 2.18166 3.12849 0 4.92354 0L53.3431 0C54.404 0 55.4214 0.421427 56.1716 1.17157L61.8284 6.82843C62.5786 7.57857 63 8.59599 63 9.65685V29.3506Z" fill="#007BFF"></path></g>
        <g style="opacity: 1;" id="logotype" transform="translate(69, 7.8774999999999995)"><path fill="#976ee2" d="M17.76 17.93L17.76 0.50L22.49 0.50L22.49 17.68Q22.49 20.03 21.51 21.73Q20.53 23.43 18.79 24.34Q17.06 25.25 14.86 25.25L14.86 25.25Q12.05 25.25 10.16 23.90Q8.28 22.55 7.58 19.99L7.58 19.99L11.74 18.91Q11.95 19.64 12.35 20.19Q12.76 20.73 13.39 21.01Q14.02 21.29 14.79 21.29L14.79 21.29Q15.70 21.29 16.36 20.85Q17.02 20.41 17.39 19.64Q17.76 18.88 17.76 17.93L17.76 17.93ZM33.48 25.25L33.48 25.25Q30.92 25.25 28.93 24.14Q26.93 23.04 25.79 21.03Q24.66 19.02 24.66 16.28L24.66 16.28Q24.66 13.52 25.83 11.49Q27.00 9.46 29.03 8.36Q31.06 7.25 33.58 7.25L33.58 7.25Q36.10 7.25 38.13 8.36Q40.16 9.46 41.35 11.47Q42.54 13.48 42.54 16.21L42.54 16.21Q42.54 18.98 41.33 21.01Q40.13 23.04 38.08 24.14Q36.03 25.25 33.48 25.25ZM33.44 21.22L33.44 21.22Q34.53 21.22 35.51 20.68Q36.49 20.13 37.12 19.03Q37.75 17.93 37.75 16.21L37.75 16.21Q37.75 14.57 37.15 13.47Q36.56 12.36 35.59 11.82Q34.63 11.28 33.51 11.28L33.51 11.28Q32.43 11.28 31.50 11.82Q30.57 12.36 30.03 13.47Q29.49 14.57 29.49 16.28L29.49 16.28Q29.49 17.93 30.01 19.03Q30.54 20.13 31.45 20.68Q32.36 21.22 33.44 21.22ZM49.05 10.19L48.49 10.12Q49.30 8.93 50.78 8.09Q52.27 7.25 54.30 7.25L54.30 7.25Q56.61 7.25 58.34 8.36Q60.08 9.46 61.07 11.49Q62.07 13.52 62.07 16.25L62.07 16.25Q62.07 18.98 61.07 20.99Q60.08 23.00 58.33 24.13Q56.58 25.25 54.30 25.25L54.30 25.25Q52.48 25.25 51.08 24.53Q49.68 23.81 48.91 22.83L48.91 22.83L48.63 25L44.57 25L44.57-0.20L49.05-0.20L49.05 10.19ZM57.24 16.25L57.24 16.25Q57.24 14.04 56.10 12.70Q54.97 11.35 53.15 11.35L53.15 11.35Q52.03 11.35 51.10 11.93Q50.17 12.50 49.61 13.59Q49.05 14.67 49.05 16.25L49.05 16.25Q49.05 17.82 49.61 18.91Q50.17 19.99 51.10 20.57Q52.03 21.15 53.15 21.15L53.15 21.15Q54.97 21.15 56.10 19.80Q57.24 18.45 57.24 16.25ZM68.86 11.70L74.08 11.70Q75.48 11.70 76.39 11.26Q77.30 10.82 77.73 10.00Q78.17 9.18 78.17 8.06L78.17 8.06Q78.17 6.34 77.17 5.40Q76.18 4.45 74.08 4.45L74.08 4.45L68.86 4.45L68.86 11.70ZM83.00 8.06L83.00 8.06Q83.00 9.42 82.51 10.77Q82.02 12.12 80.97 13.22Q79.92 14.32 78.26 14.99Q76.60 15.65 74.22 15.65L74.22 15.65L68.86 15.65L68.86 25L64.14 25L64.14 0.50L74.22 0.50Q77.19 0.50 79.13 1.53Q81.08 2.56 82.04 4.30Q83.00 6.03 83.00 8.06ZM91.40 25.25L91.40 25.25Q88.85 25.25 86.85 24.14Q84.86 23.04 83.72 21.03Q82.58 19.02 82.58 16.28L82.58 16.28Q82.58 13.52 83.75 11.49Q84.93 9.46 86.96 8.36Q88.99 7.25 91.51 7.25L91.51 7.25Q94.03 7.25 96.06 8.36Q98.09 9.46 99.28 11.47Q100.47 13.48 100.47 16.21L100.47 16.21Q100.47 18.98 99.26 21.01Q98.05 23.04 96.00 24.14Q93.96 25.25 91.40 25.25ZM91.37 21.22L91.37 21.22Q92.45 21.22 93.43 20.68Q94.41 20.13 95.04 19.03Q95.67 17.93 95.67 16.21L95.67 16.21Q95.67 14.57 95.08 13.47Q94.48 12.36 93.52 11.82Q92.56 11.28 91.44 11.28L91.44 11.28Q90.35 11.28 89.42 11.82Q88.50 12.36 87.95 13.47Q87.41 14.57 87.41 16.28L87.41 16.28Q87.41 17.93 87.94 19.03Q88.46 20.13 89.37 20.68Q90.28 21.22 91.37 21.22ZM102.50 25L102.50 7.50L106.56 7.50L106.87 9.74Q107.61 8.83 108.53 8.25Q109.46 7.67 110.58 7.45Q111.70 7.22 112.93 7.50L112.93 7.50L112.93 11.70Q111.98 11.38 110.95 11.52Q109.92 11.66 109.02 12.26Q108.13 12.85 107.55 13.96Q106.98 15.06 106.98 16.74L106.98 16.74L106.98 25L102.50 25ZM113.17 7.50L115.66 7.50L115.66 2.60L120.20 2.60L120.20 7.50L124.05 7.50L124.05 11.45L120.20 11.45L120.20 18.56Q120.20 19.93 120.78 20.48Q121.36 21.04 122.25 21.08Q123.14 21.11 124.05 20.98L124.05 20.98L124.05 24.82Q122.44 25.18 120.92 25.04Q119.40 24.89 118.21 24.21Q117.02 23.53 116.34 22.13Q115.66 20.73 115.66 18.56L115.66 18.56L115.66 11.45L113.17 11.45L113.17 7.50ZM140.26 25L136.13 25L135.78 22.86Q134.91 23.95 133.80 24.58Q132.70 25.21 130.84 25.21L130.84 25.21Q129.09 25.21 127.78 24.60Q126.47 23.98 125.73 22.88Q125.00 21.78 125.00 20.27L125.00 20.27Q125.00 18.07 126.59 16.62Q128.19 15.16 131.41 14.78L131.41 14.78L135.78 14.29L135.78 13.06Q135.78 12.33 135.11 11.70Q134.45 11.07 133.01 11.07L133.01 11.07Q131.75 11.07 130.83 11.68Q129.90 12.29 129.58 13.52L129.58 13.52L125.73 12.12Q126.43 9.77 128.39 8.51Q130.35 7.25 133.22 7.25L133.22 7.25Q136.72 7.25 138.49 8.99Q140.26 10.72 140.26 13.55L140.26 13.55L140.26 25ZM135.78 17.68L135.78 17.41L132 17.89Q130.84 18.04 130.25 18.58Q129.66 19.12 129.66 19.89L129.66 19.89Q129.66 20.63 130.25 21.13Q130.84 21.64 131.93 21.64L131.93 21.64Q133.16 21.64 134.01 21.18Q134.87 20.73 135.32 19.86Q135.78 18.98 135.78 17.68L135.78 17.68ZM142.95 25L142.95-0.20L147.44-0.20L147.44 25L142.95 25Z"></path></g>
        
      </svg>